<svg width="200" height="200" viewBox="0 0 200 200" xmlns="http://www.w3.org/2000/svg">
  <!-- Background -->
  <rect width="200" height="200" fill="#f8f9fa"/>
  
  <!-- Grid lines for academic look -->
  <defs>
    <pattern id="grid" width="20" height="20" patternUnits="userSpaceOnUse">
      <path d="M 20 0 L 0 0 0 20" fill="none" stroke="#e0e0e0" stroke-width="0.5" opacity="0.3"/>
    </pattern>
  </defs>
  <rect width="200" height="200" fill="url(#grid)"/>
  
  <!-- Axes -->
  <line x1="30" y1="170" x2="180" y2="170" stroke="#2c3e50" stroke-width="2"/>
  <line x1="30" y1="170" x2="30" y2="30" stroke="#2c3e50" stroke-width="2"/>
  
  <!-- Theoretical curve (smooth line) -->
  <!-- Flat part before threshold -->
  <line x1="30" y1="160" x2="90" y2="160" stroke="#3498db" stroke-width="3" opacity="0.9"/>
  
  <!-- Increasing part after threshold (curved, starting from 0) -->
  <path d="M 90 160 Q 120 140 150 80 Q 165 70 175 60" stroke="#3498db" stroke-width="3" fill="none" opacity="0.9"/>
  
  <!-- Experimental points (slightly scattered around theoretical line) -->
  <g fill="#e74c3c" opacity="0.8">
    <!-- Points on flat part -->
    <circle cx="40" cy="161" r="2"/>
    <circle cx="50" cy="159" r="2"/>
    <circle cx="60" cy="160" r="2"/>
    <circle cx="70" cy="162" r="2"/>
    <circle cx="80" cy="159" r="2"/>
    
    <!-- Points on increasing part -->
    <circle cx="95" cy="161" r="2"/>
    <circle cx="105" cy="136" r="2"/>
    <circle cx="115" cy="144" r="2"/>
    <circle cx="125" cy="121" r="2"/>
    <circle cx="135" cy="112" r="2"/>
    <circle cx="145" cy="88" r="2"/>
    <circle cx="155" cy="80" r="2"/>
    <circle cx="165" cy="67" r="2"/>
    <circle cx="175" cy="55" r="2"/>
  </g>
  
  <!-- Threshold line and label -->
  <line x1="90" y1="30" x2="90" y2="170" stroke="#9b59b6" stroke-width="2" stroke-dasharray="5,5" opacity="0.7"/>
  
  <!-- Delta label -->
  <text x="90" y="185" text-anchor="middle" font-family="serif" font-size="16" fill="#9b59b6">δ</text>
  
  <!-- Axis labels -->
  <text x="105" y="195" text-anchor="middle" font-family="serif" font-size="12" fill="#2c3e50">Sample complexity</text>
  <text x="15" y="100" text-anchor="middle" font-family="serif" font-size="12" fill="#2c3e50" transform="rotate(-90 15 100)">Recovery strength</text>
  
  <!-- Legend -->
  <g transform="translate(120, 40)">
    <rect x="-5" y="-5" width="70" height="35" fill="white" stroke="#ddd" stroke-width="1" rx="3"/>
    <line x1="0" y1="5" x2="15" y2="5" stroke="#3498db" stroke-width="2"/>
    <text x="18" y="9" font-family="serif" font-size="10" fill="#2c3e50">Theory</text>
    <circle cx="7" cy="18" r="2" fill="#e74c3c"/>
    <text x="18" y="22" font-family="serif" font-size="10" fill="#2c3e50">Experim.</text>
  </g>
  
  <!-- Title area -->
  <text x="100" y="15" text-anchor="middle" font-family="serif" font-size="11" fill="#2c3e50" font-weight="bold">Spectral Phase Transition</text>
</svg>